<svg width="19" height="19" viewBox="0 0 19 19" fill="none" xmlns="http://www.w3.org/2000/svg">
<path d="M16.15 4.275C16.15 5.06201 15.512 5.7 14.725 5.7C13.938 5.7 13.3 5.06201 13.3 4.275C13.3 3.48799 13.938 2.85 14.725 2.85C15.512 2.85 16.15 3.48799 16.15 4.275Z" fill="url(#paint0_linear_1_224)"/>
<path fill-rule="evenodd" clip-rule="evenodd" d="M9.5 14.25C12.1234 14.25 14.25 12.1234 14.25 9.5C14.25 6.87665 12.1234 4.75 9.5 4.75C6.87665 4.75 4.75 6.87665 4.75 9.5C4.75 12.1234 6.87665 14.25 9.5 14.25ZM9.5 12.35C11.074 12.35 12.35 11.074 12.35 9.5C12.35 7.92599 11.074 6.65 9.5 6.65C7.92599 6.65 6.65 7.92599 6.65 9.5C6.65 11.074 7.92599 12.35 9.5 12.35Z" fill="url(#paint1_linear_1_224)"/>
<path fill-rule="evenodd" clip-rule="evenodd" d="M0 9.12C0 5.9277 0 4.33155 0.621263 3.11225C1.16774 2.03973 2.03973 1.16774 3.11225 0.621263C4.33155 0 5.9277 0 9.12 0H9.88C13.0723 0 14.6684 0 15.8877 0.621263C16.9603 1.16774 17.8323 2.03973 18.3787 3.11225C19 4.33155 19 5.9277 19 9.12V9.88C19 13.0723 19 14.6684 18.3787 15.8877C17.8323 16.9603 16.9603 17.8323 15.8877 18.3787C14.6684 19 13.0723 19 9.88 19H9.12C5.9277 19 4.33155 19 3.11225 18.3787C2.03973 17.8323 1.16774 16.9603 0.621263 15.8877C0 14.6684 0 13.0723 0 9.88V9.12ZM9.12 1.9H9.88C11.5075 1.9 12.6139 1.90148 13.469 1.97135C14.302 2.03941 14.728 2.16276 15.0252 2.31418C15.7402 2.67849 16.3215 3.25982 16.6858 3.97484C16.8372 4.272 16.9606 4.69798 17.0287 5.53097C17.0985 6.38614 17.1 7.4925 17.1 9.12V9.88C17.1 11.5075 17.0985 12.6139 17.0287 13.469C16.9606 14.302 16.8372 14.728 16.6858 15.0252C16.3215 15.7402 15.7402 16.3215 15.0252 16.6858C14.728 16.8372 14.302 16.9606 13.469 17.0287C12.6139 17.0985 11.5075 17.1 9.88 17.1H9.12C7.4925 17.1 6.38614 17.0985 5.53097 17.0287C4.69798 16.9606 4.272 16.8372 3.97484 16.6858C3.25982 16.3215 2.67849 15.7402 2.31418 15.0252C2.16276 14.728 2.03941 14.302 1.97135 13.469C1.90148 12.6139 1.9 11.5075 1.9 9.88V9.12C1.9 7.4925 1.90148 6.38614 1.97135 5.53097C2.03941 4.69798 2.16276 4.272 2.31418 3.97484C2.67849 3.25982 3.25982 2.67849 3.97484 2.31418C4.272 2.16276 4.69798 2.03941 5.53097 1.97135C6.38614 1.90148 7.4925 1.9 9.12 1.9Z" fill="url(#paint2_linear_1_224)"/>
<defs>
<linearGradient id="paint0_linear_1_224" x1="9.5" y1="0" x2="9.5" y2="19" gradientUnits="userSpaceOnUse">
<stop offset="0.0625" stop-color="#D82D7E"/>
<stop offset="1" stop-color="#FBA756"/>
</linearGradient>
<linearGradient id="paint1_linear_1_224" x1="9.5" y1="0" x2="9.5" y2="19" gradientUnits="userSpaceOnUse">
<stop offset="0.0625" stop-color="#D82D7E"/>
<stop offset="1" stop-color="#FBA756"/>
</linearGradient>
<linearGradient id="paint2_linear_1_224" x1="9.5" y1="0" x2="9.5" y2="19" gradientUnits="userSpaceOnUse">
<stop offset="0.0625" stop-color="#D82D7E"/>
<stop offset="1" stop-color="#FBA756"/>
</linearGradient>
</defs>
</svg>
