<svg width="19" height="14" viewBox="0 0 19 14" fill="none" xmlns="http://www.w3.org/2000/svg">
<path d="M5.96379 14C3.76861 14 1.72233 13.4273 0 12.4391C1.46232 12.524 4.04298 12.3207 5.64814 10.9473C3.23345 10.8479 2.14446 9.18661 2.00242 8.47667C2.20759 8.54767 3.1861 8.63286 3.73848 8.43408C0.960788 7.80933 0.534665 5.62272 0.629359 4.95538C1.15018 5.28195 2.03399 5.39554 2.3812 5.36714C-0.207105 3.70588 0.724053 1.2069 1.18174 0.667343C3.0392 2.97571 5.82296 4.27217 9.26683 4.34429C9.2019 4.08883 9.1676 3.82286 9.1676 3.5497C9.1676 1.58925 10.9341 0 13.1132 0C14.2517 0 15.2776 0.43385 15.9978 1.12781C16.7586 0.96789 17.9036 0.59352 18.4634 0.269777C18.1813 1.1785 17.3028 1.93656 16.7715 2.21753C16.7672 2.20792 16.7759 2.22708 16.7715 2.21753C17.2382 2.1542 18.5011 1.93648 19 1.63286C18.7533 2.14337 17.822 2.99218 17.0577 3.46739C17.1999 9.09273 12.4019 14 5.96379 14Z" fill="#58A7DE"/>
</svg>
